<svg width="12" height="22" viewBox="0 0 12 22" fill="none" xmlns="http://www.w3.org/2000/svg">
<path d="M11.1795 21.2375C11.3545 21.0625 11.442 20.8537 11.442 20.611C11.442 20.3676 11.3545 20.1583 11.1795 19.9833L2.19619 11L11.2087 1.9875C11.3837 1.8125 11.4712 1.60833 11.4712 1.375C11.4712 1.14167 11.374 0.9375 11.1795 0.7625C11.0045 0.5875 10.7953 0.5 10.5519 0.5C10.3092 0.5 10.1004 0.5875 9.92536 0.7625L0.358692 10.3292C0.26147 10.4458 0.193416 10.5574 0.154527 10.664C0.115638 10.7713 0.0961914 10.8833 0.0961914 11C0.0961914 11.1167 0.115638 11.2283 0.154527 11.3348C0.193416 11.4422 0.26147 11.5542 0.358692 11.6708L9.95453 21.2667C10.1295 21.4417 10.3286 21.5292 10.5519 21.5292C10.7759 21.5292 10.9851 21.4319 11.1795 21.2375Z" fill="#1C1B1F"/>
</svg>
